<svg width="70" height="70" viewBox="0 0 70 70" fill="none" xmlns="http://www.w3.org/2000/svg">
<path d="M64.1666 40.8334V34.9274C64.1666 29.5441 64.1666 26.8527 63.0227 24.8412C62.2443 23.4724 61.1109 22.339 59.7421 21.5606C57.7307 20.4167 55.0392 20.4167 49.6559 20.4167H48.8407C48.482 20.4167 48.3029 20.4167 48.1372 20.3977C47.2742 20.2989 46.5004 19.8205 46.0259 19.0928C45.9349 18.9533 45.8546 18.793 45.6945 18.4723C45.3737 17.8309 45.2133 17.5101 45.0316 17.2312C44.0828 15.7758 42.5346 14.819 40.8085 14.6213C40.4778 14.5834 40.1193 14.5834 39.4021 14.5834H30.5979C29.8806 14.5834 29.5222 14.5834 29.1914 14.6213C27.4653 14.819 25.9172 15.7758 24.9685 17.2312C24.7866 17.5101 24.6262 17.8308 24.3055 18.4723C24.1452 18.7929 24.065 18.9533 23.9741 19.0928C23.4997 19.8205 22.7257 20.2989 21.8626 20.3977C21.6972 20.4167 21.5179 20.4167 21.1593 20.4167H20.344C14.9609 20.4167 12.2693 20.4167 10.2578 21.5606C8.88902 22.339 7.75563 23.4724 6.9772 24.8412C5.83331 26.8527 5.83331 29.5441 5.83331 34.9274V40.8334C5.83331 49.0829 5.83331 53.2076 8.39613 55.7705C10.9589 58.3334 15.0837 58.3334 23.3333 58.3334H46.6666C54.9161 58.3334 59.0409 58.3334 61.6038 55.7705C64.1666 53.2076 64.1666 49.0829 64.1666 40.8334Z" stroke="#00F5BB" stroke-width="3"/>
<path d="M20.4167 20.4166V17.5C20.4167 14.7501 20.4167 13.3752 19.5624 12.5209C18.7081 11.6666 17.3332 11.6666 14.5833 11.6666C11.8335 11.6666 10.4586 11.6666 9.60426 12.5209C8.75 13.3752 8.75 14.7501 8.75 17.5V21.875" stroke="#00F5BB" stroke-width="3"/>
<path d="M61.25 23.3333V17.5C61.25 14.7501 61.25 13.3752 60.3957 12.5209C59.5414 11.6666 58.1665 11.6666 55.4166 11.6666C52.6668 11.6666 51.2919 11.6666 50.4376 12.5209C49.5833 13.3752 49.5833 14.7501 49.5833 17.5V20.4166" stroke="#00F5BB" stroke-width="3"/>
<path d="M26.25 39.375H17.5" stroke="#00F5BB" stroke-width="3" stroke-linecap="round"/>
<path d="M52.5 39.375H48.125M48.125 39.375H43.75M48.125 39.375V35M48.125 39.375V43.75" stroke="#00F5BB" stroke-width="3" stroke-linecap="round"/>
</svg>
