<svg width="76" height="76" viewBox="0 0 76 76" fill="none" xmlns="http://www.w3.org/2000/svg">
<path d="M63.879 12.9811H12.122V45.8317H63.879V12.9811Z" stroke="#00F5BB" stroke-width="2.87" stroke-miterlimit="10" stroke-linejoin="round"/>
<path d="M12.122 45.8306H63.879L72.8555 63.02H3.14551L12.122 45.8306Z" stroke="#00F5BB" stroke-width="2.87" stroke-miterlimit="10" stroke-linejoin="round"/>
<path d="M48.8334 32.1666V29.973C48.8334 27.9735 48.8334 26.9738 48.4085 26.2267C48.1193 25.7183 47.6983 25.2973 47.1899 25.0082C46.4429 24.5833 45.4432 24.5833 43.4437 24.5833H43.1409C43.0076 24.5833 42.9411 24.5833 42.8796 24.5763C42.559 24.5395 42.2716 24.3618 42.0953 24.0916C42.0615 24.0398 42.0318 23.9802 41.9723 23.8611C41.8531 23.6229 41.7935 23.5037 41.726 23.4001C41.3736 22.8595 40.7986 22.5041 40.1575 22.4307C40.0346 22.4166 39.9015 22.4166 39.6351 22.4166H36.3649C36.0986 22.4166 35.9654 22.4166 35.8426 22.4307C35.2014 22.5041 34.6264 22.8595 34.274 23.4001C34.2065 23.5037 34.1469 23.6228 34.0278 23.8611C33.9682 23.9802 33.9385 24.0398 33.9047 24.0916C33.7285 24.3618 33.441 24.5395 33.1204 24.5763C33.059 24.5833 32.9924 24.5833 32.8592 24.5833H32.5564C30.5569 24.5833 29.5572 24.5833 28.8101 25.0082C28.3017 25.2973 27.8807 25.7183 27.5916 26.2267C27.1667 26.9738 27.1667 27.9735 27.1667 29.973V32.1666C27.1667 35.2307 27.1667 36.7628 28.1186 37.7147C29.0705 38.6666 30.6026 38.6666 33.6667 38.6666H42.3334C45.3975 38.6666 46.9295 38.6666 47.8814 37.7147C48.8334 36.7628 48.8334 35.2307 48.8334 32.1666Z" stroke="#00F5BB" stroke-width="2"/>
<path d="M32.5833 24.5834V23.5C32.5833 22.4787 32.5833 21.968 32.266 21.6507C31.9487 21.3334 31.438 21.3334 30.4167 21.3334C29.3953 21.3334 28.8846 21.3334 28.5673 21.6507C28.25 21.968 28.25 22.4787 28.25 23.5V25.125" stroke="#00F5BB" stroke-width="2"/>
<path d="M47.75 25.6667V23.5C47.75 22.4787 47.75 21.968 47.4327 21.6507C47.1154 21.3334 46.6047 21.3334 45.5834 21.3334C44.562 21.3334 44.0513 21.3334 43.734 21.6507C43.4167 21.968 43.4167 22.4787 43.4167 23.5V24.5834" stroke="#00F5BB" stroke-width="2"/>
<path d="M34.75 31.625H31.5" stroke="#00F5BB" stroke-width="2" stroke-linecap="round"/>
<path d="M44.5 31.625H42.875M42.875 31.625H41.25M42.875 31.625V30M42.875 31.625V33.25" stroke="#00F5BB" stroke-width="2" stroke-linecap="round"/>
</svg>
