<svg width="70" height="61" viewBox="0 0 70 61" fill="none" xmlns="http://www.w3.org/2000/svg">
<path d="M64.5116 30.5959C64.5148 30.5621 64.5312 30.5338 64.5312 30.5C64.5312 27.3781 63.887 0 41.5625 0H28.4375C13.8403 0 5.46875 11.1172 5.46875 30.5C5.46875 30.5338 5.48516 30.5621 5.48844 30.5959C2.38 31.1089 0 33.7973 0 37.0357V47.9286C0 51.533 2.94328 54.4643 6.5625 54.4643V59.9107C6.5625 60.5131 7.05141 61 7.65625 61H16.4062C17.0111 61 17.5 60.5131 17.5 59.9107V54.4643H52.5V59.9107C52.5 60.5131 52.9889 61 53.5938 61H62.3438C62.9486 61 63.4375 60.5131 63.4375 59.9107V54.4643C67.0567 54.4643 70 51.533 70 47.9286V37.0357C70 33.7973 67.62 31.1089 64.5116 30.5959ZM28.4375 2.17857H41.5625C61.7608 2.17857 62.3438 27.6014 62.3438 30.5H60.1562C60.1562 27.8247 59.6039 4.35714 40.4688 4.35714H29.5312C16.8361 4.35714 9.84375 13.6411 9.84375 30.5H7.65625C7.65625 5.85818 20.6762 2.17857 28.4375 2.17857ZM26.25 21.7857C21.4178 21.7857 17.5 25.6875 17.5 30.5H12.0312C12.0312 10.6924 21.548 6.53571 29.5312 6.53571H40.4688C47.4031 6.53571 52.4005 9.97786 55.323 16.7685C57.7773 22.4741 57.9688 28.7212 57.9688 30.5H35C35 25.6875 31.0822 21.7857 26.25 21.7857ZM32.8125 30.5H19.6875C19.6875 26.8912 22.6264 23.9643 26.25 23.9643C29.8736 23.9643 32.8125 26.8912 32.8125 30.5ZM15.3125 58.8214H8.75V54.4643H15.3125V58.8214ZM61.25 58.8214H54.6875V54.4643H61.25V58.8214ZM67.8125 47.9286C67.8125 50.3315 65.8503 52.2857 63.4375 52.2857H6.5625C4.14969 52.2857 2.1875 50.3315 2.1875 47.9286V37.0357C2.1875 34.6328 4.14969 32.6786 6.5625 32.6786H63.4375C65.8503 32.6786 67.8125 34.6328 67.8125 37.0357V47.9286Z" fill="#00F5BB"/>
<path d="M12 38C9.794 38 8 40.0182 8 42.5C8 44.9818 9.794 47 12 47C14.206 47 16 44.9818 16 42.5C16 40.0182 14.206 38 12 38ZM12 44.75C10.897 44.75 10 43.7409 10 42.5C10 41.2591 10.897 40.25 12 40.25C13.103 40.25 14 41.2591 14 42.5C14 43.7409 13.103 44.75 12 44.75Z" fill="#00F5BB"/>
<path d="M57.5 38C55.0182 38 53 40.0182 53 42.5C53 44.9818 55.0182 47 57.5 47C59.9818 47 62 44.9818 62 42.5C62 40.0182 59.9818 38 57.5 38ZM57.5 44.75C56.2591 44.75 55.25 43.7409 55.25 42.5C55.25 41.2591 56.2591 40.25 57.5 40.25C58.7409 40.25 59.75 41.2591 59.75 42.5C59.75 43.7409 58.7409 44.75 57.5 44.75Z" fill="#00F5BB"/>
<path d="M46.9167 39H23.0833C22.4843 39 22 39.447 22 40C22 40.553 22.4843 41 23.0833 41H46.9167C47.5158 41 48 40.553 48 40C48 39.447 47.5158 39 46.9167 39Z" fill="#00F5BB"/>
<path d="M46.9167 44H23.0833C22.4843 44 22 44.447 22 45C22 45.553 22.4843 46 23.0833 46H46.9167C47.5158 46 48 45.553 48 45C48 44.447 47.5158 44 46.9167 44Z" fill="#00F5BB"/>
<path d="M46.707 12.2932C46.3161 11.9023 45.6842 11.9023 45.2932 12.2932C44.9023 12.6842 44.9023 13.3162 45.2932 13.7071L47.293 15.707C47.4879 15.902 47.7439 16 47.9999 16C48.2558 16 48.5118 15.902 48.7068 15.707C49.0977 15.316 49.0977 14.6841 48.7068 14.2931L46.707 12.2932Z" fill="#00F5BB"/>
<path d="M40.8968 12.3258C40.4624 11.8914 39.7602 11.8914 39.3258 12.3258C38.8914 12.7603 38.8914 13.4625 39.3258 13.8969L47.1032 21.6745C47.3198 21.8911 47.6042 22 47.8887 22C48.1731 22 48.4575 21.8911 48.6742 21.6745C49.1086 21.24 49.1086 20.5378 48.6742 20.1034L40.8968 12.3258Z" fill="#00F5BB"/>
</svg>
