<svg width="76" height="77" viewBox="0 0 76 77" fill="none" xmlns="http://www.w3.org/2000/svg">
<path d="M63.879 13.231H12.122V46.0815H63.879V13.231Z" stroke="#00F5BB" stroke-width="2.87" stroke-miterlimit="10" stroke-linejoin="round"/>
<path d="M12.122 46.0806H63.879L72.8555 63.27H3.14553L12.122 46.0806Z" stroke="#00F5BB" stroke-width="2.87" stroke-miterlimit="10" stroke-linejoin="round"/>
<path d="M33.75 23.75V22.4844C33.75 21.3309 33.75 20.7541 33.5049 20.3231C33.3381 20.0298 33.0952 19.7869 32.8019 19.6201C32.3709 19.375 31.7941 19.375 30.6406 19.375H30.4659C30.389 19.375 30.3506 19.375 30.3151 19.3709C30.1302 19.3498 29.9644 19.2472 29.8627 19.0913C29.8432 19.0614 29.826 19.0271 29.7917 18.9583C29.7229 18.8209 29.6886 18.7522 29.6496 18.6924C29.4463 18.3805 29.1146 18.1755 28.7447 18.1331C28.6738 18.125 28.597 18.125 28.4433 18.125H26.5567C26.403 18.125 26.3262 18.125 26.2553 18.1331C25.8854 18.1755 25.5537 18.3805 25.3504 18.6924C25.3114 18.7522 25.2771 18.8209 25.2083 18.9583C25.174 19.0271 25.1568 19.0614 25.1373 19.0913C25.0357 19.2472 24.8698 19.3498 24.6848 19.3709C24.6494 19.375 24.611 19.375 24.5341 19.375H24.3594C23.2059 19.375 22.6291 19.375 22.1981 19.6201C21.9048 19.7869 21.6619 20.0298 21.4951 20.3231C21.25 20.7541 21.25 21.3309 21.25 22.4844V23.75C21.25 25.5177 21.25 26.4016 21.7992 26.9508C22.3483 27.5 23.2322 27.5 25 27.5H30C31.7677 27.5 32.6516 27.5 33.2008 26.9508C33.75 26.4016 33.75 25.5177 33.75 23.75Z" stroke="#00F5BB"/>
<path d="M24.375 19.375V18.75C24.375 18.1607 24.375 17.8661 24.1919 17.6831C24.0089 17.5 23.7143 17.5 23.125 17.5C22.5357 17.5 22.2411 17.5 22.0581 17.6831C21.875 17.8661 21.875 18.1607 21.875 18.75V19.6875" stroke="#00F5BB"/>
<path d="M33.125 20V18.75C33.125 18.1607 33.125 17.8661 32.9419 17.6831C32.7589 17.5 32.4642 17.5 31.875 17.5C31.2857 17.5 30.9911 17.5 30.8081 17.6831C30.625 17.8661 30.625 18.1607 30.625 18.75V19.375" stroke="#00F5BB"/>
<path d="M25.625 23.4375H23.75" stroke="#00F5BB" stroke-linecap="round"/>
<path d="M31.25 23.4375H30.3125M30.3125 23.4375H29.375M30.3125 23.4375V22.5M30.3125 23.4375V24.375" stroke="#00F5BB" stroke-linecap="round"/>
<path d="M49.9444 20.1429V18M47.7778 18H52.1111M44.1667 23H42M42 20.8571V25.1429M55 22.2857V28M46.3333 23H46.3406M48.5 23H48.5072M50.6667 23H50.6739M44.1667 20.1429V25.8571H45.6111L47.0556 28H52.8333V21.5714L51.3889 20.1429H44.1667Z" stroke="#00F5BB" stroke-linecap="round" stroke-linejoin="round"/>
<path d="M38 38.4615H38.0078M38 34.6154V36.1538M39.5556 32.3077V30M37.2222 30H41.8889M33.3333 35.3846H31M31 33.0769V37.6923M45 34.6154V40.7692M33.3333 32.3077V38.4615H34.8889L36.4444 40.7692H42.6667V33.8462L41.1111 32.3077H33.3333Z" stroke="#00F5BB" stroke-linecap="round" stroke-linejoin="round"/>
</svg>
