<svg width="79" height="79" viewBox="0 0 79 79" fill="none" xmlns="http://www.w3.org/2000/svg">
<path d="M18.6458 15.8385H7.41667C5.27778 15.9722 1 17.2823 1 21.4531C1 25.624 1 43.5104 1 51.9323C1.26736 53.0017 2.44375 55.4615 5.01042 56.7448C5.01042 59.3115 5.01042 69.3108 5.01042 73.9896C5.01042 75.059 5.65208 77.1979 8.21875 77.1979C10.7854 77.1979 22.9236 77.1979 28.6719 77.1979C29.875 77.1979 32.2812 76.5562 32.2812 73.9896C32.2812 71.4229 32.2812 61.4236 32.2812 56.7448C33.4844 56.0764 35.8906 54.1781 35.8906 51.9323C35.8906 49.6865 35.8906 30.6771 35.8906 21.4531C35.8906 16.2396 29.875 15.8385 29.474 15.8385C29.1531 15.8385 22.1215 15.8385 18.6458 15.8385ZM18.6458 15.8385V6.61458C18.9132 4.74306 20.4906 1 24.6615 1C28.8323 1 49.6597 1 59.5521 1C61.691 1.26736 65.9687 2.84479 65.9687 7.01562C65.9687 11.1865 65.9687 34.9549 65.9687 46.3177M65.9687 46.3177H59.151L53.9375 61.5573V68.776L54.6895 69.0768M65.9687 46.3177H73.5885L78 61.5573V68.776L77.1979 69.1325M57.9479 70.3802V78H74.3906V70.3802M57.9479 70.3802H74.3906M57.9479 70.3802L56.9453 69.9792M74.3906 70.3802L75.293 69.9792M56.9453 69.9792H75.293M56.9453 69.9792L55.4414 69.3776M75.293 69.9792L76.3958 69.489M55.4414 69.3776L76.3958 69.489M55.4414 69.3776L54.6895 69.0768M76.3958 69.489L77.1979 69.1325M54.6895 69.0768L77.1979 69.1325M9.02083 69.9792V65.5677H16.6406V70.3802M16.6406 62.7604V57.9479H9.02083V62.7604M20.25 62.7604V57.9479H28.2708V62.7604M28.2708 70.3802V65.5677H20.25V70.3802M27.0677 50.7292H33.0833M21.4531 50.7292H15.8385M10.224 50.7292H4.60937M5.01042 24.2604V42.3073V42.7083H32.2812V24.2604H5.01042Z" stroke="#00F5BB" stroke-width="2"/>
</svg>
