<svg width="70" height="70" viewBox="0 0 70 70" fill="none" xmlns="http://www.w3.org/2000/svg">
<path d="M35 33.0859C41.8605 33.0859 47.4414 27.505 47.4414 20.6445C47.4414 13.784 41.8605 8.20312 35 8.20312C28.1395 8.20312 22.5586 13.784 22.5586 20.6445C22.5586 27.505 28.1395 33.0859 35 33.0859ZM35 10.2539C40.7294 10.2539 45.3906 14.9152 45.3906 20.6445C45.3906 26.3739 40.7294 31.0352 35 31.0352C29.2706 31.0352 24.6094 26.3739 24.6094 20.6445C24.6094 14.9152 29.2706 10.2539 35 10.2539Z" fill="#00F5BB"/>
<path d="M57.6889 48.3536C57.6878 48.344 57.6857 48.3349 57.6846 48.3258C57.6804 48.2975 57.6761 48.2692 57.6697 48.2414C57.6675 48.2313 57.6643 48.2211 57.6617 48.211C57.6547 48.1843 57.6472 48.1581 57.6387 48.1325C57.635 48.1218 57.6312 48.1116 57.6275 48.1015C57.6173 48.0759 57.6067 48.0508 57.5949 48.0262C57.5917 48.0203 57.5901 48.0139 57.5869 48.008L55.6445 44.1233V20.6445C55.6445 9.26109 46.3834 0 35 0C23.6166 0 14.3555 9.26109 14.3555 20.6445V40.1376L12.3351 48.2179C12.3341 48.2227 12.3341 48.2275 12.3325 48.2323C12.326 48.2612 12.3207 48.29 12.3164 48.3194C12.3148 48.3295 12.3132 48.3392 12.3122 48.3493C12.3074 48.3883 12.3047 48.4273 12.3047 48.4668V68.9746C12.3047 69.5412 12.764 70 13.3301 70H21.5332C22.0993 70 22.5586 69.5412 22.5586 68.9746V48.4668C22.5586 48.4273 22.5559 48.3883 22.5511 48.3493C22.55 48.3397 22.5484 48.3295 22.5468 48.3194C22.5426 48.29 22.5372 48.2607 22.5308 48.2323C22.5292 48.2275 22.5292 48.2227 22.5282 48.2179L20.5078 40.1376V35.3322C24.2377 39.0129 29.3577 41.2891 35 41.2891C40.5003 41.2891 45.6496 39.1539 49.4922 35.3525V44.1233L47.5498 48.008C47.5466 48.0139 47.545 48.0203 47.5418 48.0262C47.5301 48.0508 47.5194 48.0759 47.5092 48.1015C47.5055 48.1116 47.5018 48.1218 47.498 48.1325C47.4895 48.1581 47.482 48.1843 47.4751 48.211C47.4724 48.2211 47.4692 48.2313 47.467 48.2414C47.4606 48.2692 47.4558 48.2975 47.4521 48.3258C47.451 48.3349 47.4489 48.344 47.4478 48.3536C47.4441 48.3904 47.4414 48.4283 47.4414 48.4668V64.873C47.4414 67.7003 49.7411 70 52.5684 70C55.3957 70 57.6953 67.7003 57.6953 64.873V48.4668C57.6953 48.4283 57.6926 48.391 57.6889 48.3536ZM49.4922 63.8477V61.7969H55.6445V63.8477H49.4922ZM51.1515 45.3906H53.9852L55.0106 47.4414H50.1261L51.1515 45.3906ZM55.6445 49.4922V59.7461H49.4922V49.4922H55.6445ZM17.4316 53.5938C16.2781 53.5938 15.2132 53.9767 14.3555 54.6218V49.4922H20.5078V54.6218C19.6501 53.9767 18.5852 53.5938 17.4316 53.5938ZM20.5078 58.7207C20.5078 60.4169 19.1278 61.7969 17.4316 61.7969C15.7355 61.7969 14.3555 60.4169 14.3555 58.7207C14.3555 57.0245 15.7355 55.6445 17.4316 55.6445C19.1278 55.6445 20.5078 57.0245 20.5078 58.7207ZM14.6433 47.4414L16.1814 41.2891H18.6819L20.22 47.4414H14.6433ZM18.457 39.2383H16.4062V29.6108C16.983 30.8023 17.6714 31.9308 18.457 32.9818V39.2383ZM14.3555 67.9492V62.8196C15.2132 63.4647 16.2781 63.8477 17.4316 63.8477C18.5852 63.8477 19.6501 63.4647 20.5078 62.8196V67.9492H14.3555ZM35 39.2383C24.7472 39.2383 16.4062 30.8968 16.4062 20.6445C16.4062 10.3922 24.7472 2.05078 35 2.05078C45.2528 2.05078 53.5938 10.3922 53.5938 20.6445V43.3398H51.543V32.6939C51.544 32.6651 51.544 32.6363 51.543 32.6069V20.6445C51.543 11.5228 44.1217 4.10156 35 4.10156C31.3374 4.10156 27.8639 5.27969 24.9549 7.50938C24.5058 7.85385 24.4203 8.49739 24.7653 8.94707C25.1098 9.39674 25.7533 9.48166 26.2025 9.13719C28.7499 7.18468 31.7924 6.15234 35 6.15234C42.9911 6.15234 49.4922 12.6534 49.4922 20.6445C49.4922 28.6356 42.9911 35.1367 35 35.1367C27.0089 35.1367 20.5078 28.6356 20.5078 20.6445C20.5078 17.437 21.5401 14.3945 23.4927 11.847C23.8371 11.3973 23.7517 10.7538 23.3025 10.4093C22.8529 10.0648 22.2093 10.1498 21.8649 10.5994C19.6352 13.5085 18.457 16.982 18.457 20.6445C18.457 29.7662 25.8783 37.1875 35 37.1875C41.2341 37.1875 46.6729 33.7209 49.4922 28.6148V32.295C45.9396 36.7122 40.6781 39.2383 35 39.2383ZM52.5684 67.9492C51.2316 67.9492 50.0919 67.0921 49.6684 65.8984H55.4683C55.0448 67.0921 53.9051 67.9492 52.5684 67.9492Z" fill="#00F5BB"/>
</svg>
