<svg width="100" height="100" viewBox="0 0 100 100" fill="none" xmlns="http://www.w3.org/2000/svg">
<g clip-path="url(#clip0_24_1378)">
<path d="M50 93.75C38.3968 93.75 27.2688 89.1406 19.0641 80.9359C10.8594 72.7312 6.25 61.6032 6.25 50C6.25 38.3968 10.8594 27.2688 19.0641 19.0641C27.2688 10.8594 38.3968 6.25 50 6.25C61.6032 6.25 72.7312 10.8594 80.9359 19.0641C89.1406 27.2688 93.75 38.3968 93.75 50C93.75 61.6032 89.1406 72.7312 80.9359 80.9359C72.7312 89.1406 61.6032 93.75 50 93.75ZM50 100C63.2608 100 75.9785 94.7322 85.3553 85.3553C94.7322 75.9785 100 63.2608 100 50C100 36.7392 94.7322 24.0215 85.3553 14.6447C75.9785 5.26784 63.2608 0 50 0C36.7392 0 24.0215 5.26784 14.6447 14.6447C5.26784 24.0215 0 36.7392 0 50C0 63.2608 5.26784 75.9785 14.6447 85.3553C24.0215 94.7322 36.7392 100 50 100Z" fill="white"/>
<path d="M55.8125 41.175L41.5 42.9688L40.9875 45.3438L43.8 45.8625C45.6375 46.3 46 46.9625 45.6 48.7938L40.9875 70.4687C39.775 76.075 41.6438 78.7125 46.0375 78.7125C49.4438 78.7125 53.4 77.1375 55.1938 74.975L55.7438 72.375C54.4938 73.475 52.6688 73.9125 51.4563 73.9125C49.7375 73.9125 49.1125 72.7063 49.5563 70.5813L55.8125 41.175ZM56.25 28.125C56.25 29.7826 55.5915 31.3723 54.4194 32.5444C53.2473 33.7165 51.6576 34.375 50 34.375C48.3424 34.375 46.7527 33.7165 45.5806 32.5444C44.4085 31.3723 43.75 29.7826 43.75 28.125C43.75 26.4674 44.4085 24.8777 45.5806 23.7056C46.7527 22.5335 48.3424 21.875 50 21.875C51.6576 21.875 53.2473 22.5335 54.4194 23.7056C55.5915 24.8777 56.25 26.4674 56.25 28.125Z" fill="white"/>
</g>
<defs>
<clipPath id="clip0_24_1378">
<rect width="100" height="100" fill="white"/>
</clipPath>
</defs>
</svg>
