<svg width="17" height="17" viewBox="0 0 17 17" fill="none" xmlns="http://www.w3.org/2000/svg">
<g clip-path="url(#clip0_3_459)">
<path fill-rule="evenodd" clip-rule="evenodd" d="M2.00282 0.543002C2.18873 0.357371 2.41197 0.21337 2.65775 0.120541C2.90352 0.0277125 3.16621 -0.0118241 3.42842 0.00455133C3.69063 0.0209268 3.94637 0.0928405 4.17868 0.215527C4.41099 0.338213 4.61458 0.50887 4.77595 0.71619L6.68314 3.16631C7.0327 3.61575 7.15595 4.20119 7.01782 4.75369L6.43664 7.08056C6.4068 7.20109 6.40853 7.32728 6.44165 7.44695C6.47478 7.56662 6.53819 7.67573 6.62576 7.76375L9.23632 10.3743C9.32446 10.4621 9.43375 10.5256 9.55362 10.5587C9.67349 10.5918 9.79989 10.5935 9.92057 10.5634L12.2464 9.98225C12.5191 9.91448 12.8036 9.90938 13.0785 9.96735C13.3534 10.0253 13.6117 10.1448 13.8338 10.3169L16.2839 12.2231C17.1647 12.9084 17.2455 14.2099 16.4571 14.9973L15.3584 16.0959C14.5722 16.8821 13.3971 17.2274 12.3016 16.8418C9.49735 15.8564 6.95146 14.2511 4.85351 12.1455C2.74803 10.0479 1.14279 7.50235 0.157262 4.69844C-0.227363 3.60406 0.11795 2.42788 0.9042 1.64163L2.00282 0.543002Z" fill="white"/>
</g>
<defs>
<clipPath id="clip0_3_459">
<rect width="17" height="17" fill="white"/>
</clipPath>
</defs>
</svg>
