<svg width="697" height="698" viewBox="0 0 697 698" fill="none" xmlns="http://www.w3.org/2000/svg">
<path fill-rule="evenodd" clip-rule="evenodd" d="M432.338 88.2562C434.168 89.7537 436.355 90.4828 438.9 90.4434C458.242 97.6831 476.709 106.918 494.309 118.148C516.677 103.318 539.278 88.8577 562.113 74.7684C563.33 74.2822 564.54 74.2822 565.758 74.7684C566.852 75.6812 568.069 76.4103 569.403 76.9557C586.536 94.0888 603.67 111.222 620.803 128.355C621.925 129.601 622.538 131.059 622.625 132.73C621.867 135.5 620.774 138.173 619.345 140.749C605.769 161.453 592.281 182.232 578.881 203.085C593.186 224.899 603.874 248.351 610.96 273.44C610.785 275.188 611.274 276.646 612.418 277.814C612.418 278.057 612.418 278.301 612.418 278.543C612.353 280.477 612.841 282.178 613.877 283.647C613.877 285.105 614.606 285.834 616.064 285.834C616.873 286.68 617.602 287.652 618.251 288.75C619.177 288.352 620.154 288.11 621.167 288.021C624.66 289.293 628.305 290.022 632.103 290.209C634.24 290.256 636.179 290.742 637.936 291.667C643.265 294.655 649.098 296.113 655.434 296.041C657.417 297.071 659.604 297.558 661.995 297.499C664.911 299.038 668.076 300.009 671.473 300.416C679.092 302.138 686.623 304.204 694.074 306.613C694.927 307.464 695.773 308.314 696.626 309.164C697.115 335.17 697.115 361.169 696.626 387.175C695.248 389.632 693.177 391.09 690.429 391.549C688.205 391.265 686.259 391.753 684.596 393.007C681.68 393.737 678.764 394.466 675.848 395.195C673.66 395.042 671.721 395.53 670.015 396.653C668.083 396.587 666.377 397.076 664.911 398.111C661.755 398.417 658.59 398.782 655.434 399.205C653.028 399.977 650.84 401.071 648.872 402.485C640.787 404.126 632.767 406.072 624.813 408.318C621.422 408.923 618.018 409.528 614.606 410.141C614.059 410.629 613.811 411.234 613.877 411.963C606.6 441.104 594.935 468.32 578.881 493.619C593.703 515.972 608.168 538.574 622.261 561.423C622.749 562.881 622.749 564.339 622.261 565.797C605.23 584.286 587.608 602.396 569.403 620.113C568.973 620.448 568.485 620.572 567.945 620.477C565.503 620.601 563.075 620.477 560.654 620.113C561.143 619.872 561.624 619.624 562.113 619.384C560.654 619.143 559.196 618.895 557.738 618.655C556.783 617.641 557.024 616.912 558.467 616.467C556.863 615.016 555.165 614.047 553.364 613.551C554.093 614.28 554.822 615.009 555.551 615.738C554.078 615.629 552.62 615.264 551.177 614.645C550.644 611.532 548.938 610.562 546.073 611.728C528.612 600.953 511.238 590.017 493.945 578.92C473.21 591.905 451.221 602.236 427.964 609.906C424.45 610.686 421.052 611.539 417.757 612.457C416.007 612.282 414.549 612.771 413.382 613.916C411.64 614.441 410.546 615.658 410.102 617.561C404.24 643.217 397.678 668.734 390.417 694.113C389.534 695.243 388.441 696.096 387.136 696.665C361.378 697.154 335.612 697.154 309.854 696.665C308.552 696.096 307.459 695.243 306.574 694.113C299.193 667.51 292.511 640.775 286.524 613.916C256.248 607.631 228.301 595.966 202.681 578.92C181.591 592.386 160.448 605.874 139.252 619.384C135.849 621.986 132.203 622.475 128.316 620.842C109.825 602.841 91.9625 584.49 74.7294 565.797C74.4385 562.079 75.4104 558.674 77.6457 555.59C91.229 534.863 104.717 514.084 118.109 493.255C101.821 468.072 90.1558 440.732 83.1137 411.234C78.969 410.323 74.8373 409.346 70.7196 408.318C68.0125 406.911 65.0962 405.934 61.9707 405.402C59.5407 404.913 57.11 404.432 54.68 403.943C51.1666 401.596 47.2785 400.014 43.0149 399.205C44.9593 398.716 44.9593 398.235 43.0149 397.746C39.1341 397.382 35.2459 397.258 31.3498 397.382C29.8443 397.367 28.3861 397.127 26.9754 396.653C27.0381 395.924 26.7946 395.319 26.2463 394.83C25.055 394.473 23.8396 394.349 22.6009 394.466C22.8255 392.125 21.9747 391.396 20.0492 392.278C18.6662 391.987 17.5726 391.258 16.7684 390.091C15.9876 391.425 16.4738 392.271 18.2265 392.643C15.0879 392.585 11.9288 392.468 8.74862 392.278C7.34808 391.651 5.88994 391.163 4.3742 390.82C3.12895 389.566 2.15637 388.108 1.45792 386.446C0.495552 360.418 0.495552 334.412 1.45792 308.435C1.98213 306.694 3.19676 305.601 5.10327 305.155C23.2287 300.586 41.4554 296.091 59.7835 291.667C62.78 291.52 65.4528 290.791 67.8033 289.48C72.9316 288.377 78.035 286.919 83.1137 285.105C83.7867 282.822 85.002 280.756 86.7591 278.908C86.302 276.649 86.302 274.34 86.7591 271.982C88.0772 271.988 89.2926 271.624 90.4044 270.888C90.29 268.978 90.0465 267.034 89.6754 265.056C89.9182 264.691 90.1617 264.327 90.4044 263.962C91.0504 264.564 91.2932 265.293 91.1335 266.149C91.8626 266.149 92.5917 266.149 93.3207 266.149C93.7064 263.342 93.2201 260.79 91.8626 258.494C92.7469 256.535 93.2332 254.47 93.3207 252.297C99.5273 234.902 107.79 218.498 118.109 203.085C104.362 181.066 90.1449 159.316 75.4585 137.833C74.0004 134.917 74.0004 132 75.4585 129.084C93.0779 111.465 110.697 93.846 128.316 76.2266C131.423 73.8622 134.583 73.8622 137.794 76.2266C159.339 90.1212 180.968 103.852 202.681 117.419C212.668 111.941 222.632 106.473 232.573 101.015C239.988 97.546 247.522 94.508 255.174 91.9016C258.115 91.5188 260.788 90.547 263.194 88.9853C270.58 86.3621 278.114 84.1749 285.795 82.4237C291.793 58.1457 297.748 33.8436 303.657 9.51669C304.312 6.38533 305.648 3.59081 307.667 1.13238C334.096 -0.0727681 360.583 -0.316278 387.136 0.403314C389.112 1.32267 390.694 2.65906 391.875 4.4132C397.693 30.5897 404.254 56.5927 411.56 82.4237C418.515 84.2631 425.441 86.2076 432.338 88.2562Z" fill="#484848"/>
<path fill-rule="evenodd" clip-rule="evenodd" d="M432.339 88.2563C434.708 88.6603 436.896 89.3893 438.901 90.4436C436.356 90.4829 434.169 89.7539 432.339 88.2563Z" fill="#484848"/>
<path fill-rule="evenodd" clip-rule="evenodd" d="M263.195 88.9854C260.789 90.547 258.116 91.5189 255.175 91.9016C257.581 90.34 260.255 89.3681 263.195 88.9854Z" fill="#484848"/>
<path fill-rule="evenodd" clip-rule="evenodd" d="M359.432 158.976C363.5 158.797 367.393 159.284 371.097 160.434C367.051 160.414 363.165 159.928 359.432 158.976Z" fill="#565656"/>
<path fill-rule="evenodd" clip-rule="evenodd" d="M331.727 159.705C324.062 160.821 316.286 162.037 308.397 163.351C309.35 162.817 310.323 162.209 311.313 161.528C314.316 161.424 317.232 160.937 320.062 160.07C323.943 159.706 327.831 159.584 331.727 159.705Z" fill="#565656"/>
<path fill-rule="evenodd" clip-rule="evenodd" d="M308.397 163.351C304.977 164.875 301.332 165.847 297.461 166.267C300.824 164.513 304.469 163.542 308.397 163.351Z" fill="#565656"/>
<path fill-rule="evenodd" clip-rule="evenodd" d="M291.628 167.725C290.379 168.627 288.92 169.114 287.254 169.183C288.34 167.885 289.798 167.4 291.628 167.725Z" fill="#565656"/>
<path fill-rule="evenodd" clip-rule="evenodd" d="M359.432 158.976C363.165 159.928 367.051 160.414 371.097 160.434C443.428 171.663 494.58 210.547 524.567 277.085C528.044 285.354 530.596 293.86 532.222 302.603C532.047 304.351 532.535 305.809 533.68 306.977C535.94 316.549 537.398 326.27 538.054 336.14C538.054 342.461 538.054 348.775 538.054 355.096C537.296 360.309 536.815 365.66 536.596 371.135C535.014 381.955 532.827 392.65 530.035 403.214C510.24 462.007 471.6 502.958 414.113 526.063C399.225 531.305 383.914 534.826 368.181 536.634C356.283 537.268 344.377 537.509 332.457 537.363C329.818 536.824 327.145 536.576 324.437 536.634C316.166 535.125 307.902 533.426 299.649 531.531C258.77 520.026 225.112 497.665 198.672 464.456C181.598 441.724 169.811 416.454 163.313 388.633C162.454 383.194 161.483 377.85 160.396 372.593C153.62 302.695 176.95 245.22 230.387 200.168C246.992 187.434 264.975 177.227 284.338 169.548C285.281 169.19 286.253 169.069 287.254 169.183C288.921 169.114 290.379 168.627 291.629 167.725C293.333 166.602 295.278 166.117 297.461 166.267C301.332 165.847 304.977 164.875 308.397 163.35C316.287 162.037 324.063 160.821 331.728 159.705C340.834 158.98 350.071 158.736 359.432 158.976Z" fill="#212020"/>
<path fill-rule="evenodd" clip-rule="evenodd" d="M365.265 174.287C347.657 173.664 330.16 174.636 312.771 177.203C318.364 175.332 324.197 174.238 330.269 173.922C342.058 173.318 353.723 173.44 365.265 174.287Z" fill="#565656"/>
<path fill-rule="evenodd" clip-rule="evenodd" d="M365.264 174.287C414.541 179.966 455.005 201.838 486.654 239.903C499.551 256.704 509.146 275.174 515.452 295.312C515.627 297.557 515.386 299.744 514.723 301.874C516.699 303.173 518.157 304.874 519.097 306.977C518.973 311.354 519.703 315.486 521.285 319.371C521.941 321.479 522.189 323.666 522.014 325.933C521.926 329.993 522.407 333.88 523.472 337.598C523.472 344.889 523.472 352.18 523.472 359.47C522.881 360.148 522.269 360.877 521.649 361.658C521.387 369.991 520.774 378.251 519.826 386.446C503.758 449.43 465.117 492.197 403.904 514.762C400.434 514.959 397.27 515.929 394.426 517.678C391.481 518.014 388.565 518.495 385.678 519.137C381.165 519.873 376.79 520.85 372.554 522.053C367.546 522.067 362.683 522.556 357.973 523.511C350.682 523.511 343.392 523.511 336.101 523.511C326.436 521.987 316.716 520.281 306.938 518.407C305.392 518.531 303.934 518.291 302.564 517.678C301.396 516.534 299.938 516.045 298.189 516.22C242.321 497.906 203.802 461.205 182.632 406.131C180.174 397.455 178.109 388.706 176.435 379.884C176.25 377.303 175.765 374.876 174.976 372.594C174.976 372.105 174.976 371.624 174.976 371.135C174.395 357.531 174.151 343.927 174.247 330.308C179.409 284.702 199.094 246.669 233.302 216.208C249.604 202.229 267.831 191.415 287.982 183.764C296.133 180.963 304.396 178.776 312.771 177.203C330.159 174.636 347.657 173.664 365.264 174.287Z" fill="#565656"/>
<path fill-rule="evenodd" clip-rule="evenodd" d="M317.875 192.513C315.927 193.693 313.74 194.179 311.313 193.971C313.335 193.128 315.522 192.641 317.875 192.513Z" fill="#565656"/>
<path fill-rule="evenodd" clip-rule="evenodd" d="M380.575 192.513C384.147 193.252 387.669 193.252 391.146 192.513C391.598 193.205 391.474 193.812 390.782 194.336C395.112 195.373 399.246 196.831 403.176 198.71C407.776 197.989 411.181 199.568 413.383 203.449C407.951 201.582 402.6 199.516 397.343 197.252C391.547 196.29 385.955 194.71 380.575 192.513Z" fill="#565656"/>
<path fill-rule="evenodd" clip-rule="evenodd" d="M357.244 189.597C360.496 190.431 363.901 190.917 367.451 191.055C371.768 192.011 376.142 192.497 380.575 192.513C385.955 194.71 391.547 196.29 397.343 197.252C402.6 199.516 407.951 201.582 413.383 203.449C462.238 226.767 492.618 264.678 504.517 317.184C514.264 378.915 495.797 430.314 449.107 471.383C430.356 485.833 409.694 496.164 387.136 502.368C383.571 502.74 380.166 503.469 376.929 504.555C373.729 504.803 370.565 505.292 367.451 506.013C355.057 506.983 342.663 506.983 330.269 506.013C310.12 503.629 291.164 497.673 273.401 488.151C273.021 487.743 272.778 487.254 272.672 486.693C280.744 480.569 288.399 473.891 295.638 466.644C321.888 434.069 349.225 402.354 377.658 371.5C382.113 367.687 386.735 364.042 391.511 360.564C398.32 358.129 405.13 355.701 411.925 353.273C414.01 353.142 415.956 352.778 417.757 352.18C420.921 352.063 423.838 351.334 426.506 349.993C460.692 341.178 476.367 319.062 473.531 283.647C473.152 282.906 472.547 282.421 471.708 282.189C470.032 283.027 468.333 283.877 466.605 284.741C457.732 292.89 448.254 300.18 438.171 306.613C432.747 307.639 427.884 306.424 423.59 302.968C415.84 296.814 410.124 289.159 406.457 280.002C405.822 276.753 406.07 273.594 407.186 270.524C417.152 260.56 427.111 250.596 437.078 240.632C437.092 238.589 435.999 237.617 433.797 237.716C432.63 236.568 431.172 236.082 429.422 236.258C427.009 235.856 424.581 235.613 422.132 235.529C417.889 234.688 413.514 234.567 409.008 235.164C403.278 235.862 397.934 237.442 392.969 239.903C387.639 242.433 382.777 245.714 378.388 249.745C372.015 256.541 367.036 264.196 363.442 272.711C357.689 287.25 351.616 301.589 345.215 315.726C337.735 327.587 328.624 338.16 317.875 347.441C304.318 358.566 291.194 370.231 278.505 382.436C263.437 394.83 248.37 407.225 233.303 419.619C227.655 425.203 222.431 431.153 217.628 437.481C209.626 425.852 203.186 413.458 198.307 400.298C197.926 397.827 197.318 395.399 196.485 393.008C196.205 392.599 195.841 392.359 195.391 392.279C195.391 392.038 195.391 391.79 195.391 391.549C192.733 380.963 190.788 370.275 189.558 359.47C188.087 294.661 214.576 244.963 269.027 210.376C282.39 202.953 296.485 197.485 311.313 193.972C313.74 194.179 315.927 193.693 317.875 192.513C330.845 190.02 343.968 189.047 357.244 189.597Z" fill="#232223"/>
<path fill-rule="evenodd" clip-rule="evenodd" d="M429.422 236.257C431.172 236.082 432.63 236.568 433.797 237.716C432.047 237.891 430.589 237.405 429.422 236.257Z" fill="#565656"/>
<path fill-rule="evenodd" clip-rule="evenodd" d="M422.131 235.529C412.172 236.029 402.446 237.487 392.968 239.903C397.933 237.442 403.277 235.862 409.008 235.164C413.513 234.567 417.888 234.688 422.131 235.529Z" fill="#565656"/>
<path fill-rule="evenodd" clip-rule="evenodd" d="M357.244 189.597C359.927 189.477 362.603 189.598 365.264 189.962C366.168 190.131 366.897 190.495 367.451 191.055C363.901 190.917 360.496 190.431 357.244 189.597Z" fill="#565656"/>
<path fill-rule="evenodd" clip-rule="evenodd" d="M93.3204 252.297C93.233 254.47 92.7467 256.535 91.8623 258.494C93.2198 260.79 93.7061 263.342 93.3204 266.149C92.5914 266.149 91.8623 266.149 91.1332 266.149C91.2929 265.293 91.0501 264.563 90.4042 263.962C90.1614 264.327 89.9179 264.691 89.6751 265.056C90.0462 267.034 90.2897 268.978 90.4042 270.888C89.2923 271.624 88.077 271.988 86.7588 271.982C86.3017 274.34 86.3017 276.649 86.7588 278.908C85.0018 280.756 83.7864 282.822 83.1135 285.105C83.7288 281.183 84.5796 277.295 85.6652 273.44C87.902 266.236 90.4537 259.189 93.3204 252.297Z" fill="#484848"/>
<path fill-rule="evenodd" clip-rule="evenodd" d="M610.961 273.44C612.106 274.608 612.594 276.066 612.419 277.814C611.274 276.646 610.786 275.188 610.961 273.44Z" fill="#484848"/>
<path fill-rule="evenodd" clip-rule="evenodd" d="M612.419 278.543C613.629 279.956 614.117 281.658 613.877 283.647C612.842 282.178 612.353 280.477 612.419 278.543Z" fill="#484848"/>
<path fill-rule="evenodd" clip-rule="evenodd" d="M616.064 285.834C621.584 286.909 626.935 288.367 632.104 290.209C628.306 290.022 624.66 289.293 621.168 288.021C620.155 288.11 619.178 288.352 618.252 288.751C617.603 287.652 616.874 286.68 616.064 285.834Z" fill="#484848"/>
<path fill-rule="evenodd" clip-rule="evenodd" d="M67.8041 289.479C65.4536 290.791 62.7808 291.52 59.7844 291.667C59.8653 291.217 60.1081 290.852 60.5134 290.573C62.9143 289.971 65.3442 289.606 67.8041 289.479Z" fill="#484848"/>
<path fill-rule="evenodd" clip-rule="evenodd" d="M637.936 291.667C643.718 293.597 649.55 295.055 655.434 296.041C649.098 296.113 643.266 294.655 637.936 291.667Z" fill="#484848"/>
<path fill-rule="evenodd" clip-rule="evenodd" d="M661.995 297.499C665.408 297.908 668.564 298.88 671.473 300.416C668.076 300.009 664.912 299.038 661.995 297.499Z" fill="#484848"/>
<path fill-rule="evenodd" clip-rule="evenodd" d="M515.452 295.312C517.209 298.965 518.427 302.853 519.098 306.977C518.157 304.874 516.699 303.173 514.723 301.874C515.387 299.744 515.627 297.557 515.452 295.312Z" fill="#484848"/>
<path fill-rule="evenodd" clip-rule="evenodd" d="M532.222 302.603C533.367 303.771 533.855 305.229 533.68 306.977C532.536 305.809 532.047 304.351 532.222 302.603Z" fill="#484848"/>
<path fill-rule="evenodd" clip-rule="evenodd" d="M519.098 306.977C520.236 310.943 520.965 315.074 521.285 319.371C519.703 315.485 518.974 311.354 519.098 306.977Z" fill="#484848"/>
<path fill-rule="evenodd" clip-rule="evenodd" d="M1.45832 308.435C0.49595 334.412 0.49595 360.418 1.45832 386.446C2.15677 388.108 3.12935 389.566 4.3746 390.82C2.48558 390.273 1.1492 389.056 0.364717 387.175C-0.121572 361.169 -0.121572 335.17 0.364717 309.164C0.643951 308.759 1.00849 308.516 1.45832 308.435Z" fill="#484848"/>
<path fill-rule="evenodd" clip-rule="evenodd" d="M522.015 325.933C523.167 329.639 523.655 333.53 523.473 337.598C522.408 333.88 521.927 329.993 522.015 325.933Z" fill="#484848"/>
<path fill-rule="evenodd" clip-rule="evenodd" d="M174.248 330.307C174.152 343.926 174.395 357.531 174.977 371.135C173.841 363.517 173.356 355.737 173.519 347.805C173.519 341.849 173.763 336.016 174.248 330.307Z" fill="#565656"/>
<path fill-rule="evenodd" clip-rule="evenodd" d="M426.506 349.992C423.837 351.334 420.921 352.063 417.757 352.18C420.425 350.838 423.341 350.109 426.506 349.992Z" fill="#666666"/>
<path fill-rule="evenodd" clip-rule="evenodd" d="M523.472 359.47C522.904 368.649 521.686 377.639 519.827 386.446C520.775 378.251 521.387 369.991 521.65 361.657C522.269 360.877 522.882 360.148 523.472 359.47Z" fill="#484848"/>
<path fill-rule="evenodd" clip-rule="evenodd" d="M538.053 355.096C538.177 359.237 538.053 363.363 537.689 367.49C537.543 368.861 537.179 370.078 536.595 371.135C536.814 365.66 537.295 360.309 538.053 355.096Z" fill="#484848"/>
<path fill-rule="evenodd" clip-rule="evenodd" d="M538.054 336.14C538.572 346.361 539.053 356.685 539.512 367.125C538.769 369.954 537.916 372.746 536.961 375.51C536.443 377.259 536.567 378.958 537.325 380.613C536.137 382.859 535.532 385.286 535.502 387.904C534.839 388.509 534.351 389.238 534.044 390.091C534.044 394.983 532.703 399.358 530.034 403.214C532.827 392.65 535.014 381.955 536.596 371.135C537.179 370.078 537.544 368.861 537.69 367.49C538.054 363.363 538.178 359.237 538.054 355.096C538.054 348.775 538.054 342.461 538.054 336.14Z" fill="#484848"/>
<path fill-rule="evenodd" clip-rule="evenodd" d="M189.558 359.47C190.788 370.275 192.733 380.963 195.391 391.549C193.506 386.621 191.926 381.517 190.652 376.239C190.271 370.647 189.907 365.055 189.558 359.47Z" fill="#565656"/>
<path fill-rule="evenodd" clip-rule="evenodd" d="M174.977 372.594C175.765 374.875 176.251 377.303 176.435 379.884C175.909 379.578 175.544 379.097 175.341 378.426C174.979 376.494 174.857 374.555 174.977 372.594Z" fill="#565656"/>
<path fill-rule="evenodd" clip-rule="evenodd" d="M160.396 372.594C161.482 377.85 162.454 383.194 163.312 388.633C161.196 383.602 160.224 378.258 160.396 372.594Z" fill="#565656"/>
<path fill-rule="evenodd" clip-rule="evenodd" d="M26.976 396.653C20.6732 395.734 14.5971 394.276 8.74927 392.278C11.9295 392.468 15.0885 392.584 18.2272 392.643C16.4745 392.271 15.9882 391.425 16.769 390.091C17.5732 391.258 18.6668 391.987 20.0498 392.278C21.9753 391.396 22.8261 392.125 22.6016 394.465C23.8403 394.349 25.0556 394.473 26.2469 394.83C26.7952 395.318 27.0387 395.924 26.976 396.653Z" fill="#484848"/>
<path fill-rule="evenodd" clip-rule="evenodd" d="M690.429 391.549C688.672 392.475 686.733 392.956 684.597 393.007C686.259 391.753 688.206 391.265 690.429 391.549Z" fill="#484848"/>
<path fill-rule="evenodd" clip-rule="evenodd" d="M675.848 395.194C674.091 396.12 672.152 396.602 670.016 396.653C671.722 395.53 673.661 395.041 675.848 395.194Z" fill="#484848"/>
<path fill-rule="evenodd" clip-rule="evenodd" d="M195.391 392.278C195.841 392.359 196.205 392.599 196.485 393.007C197.318 395.399 197.926 397.827 198.307 400.298C196.614 397.958 195.642 395.282 195.391 392.278Z" fill="#565656"/>
<path fill-rule="evenodd" clip-rule="evenodd" d="M664.912 398.111C659.641 399.554 654.29 401.013 648.873 402.485C650.841 401.071 653.029 399.977 655.435 399.204C658.591 398.782 661.756 398.417 664.912 398.111Z" fill="#484848"/>
<path fill-rule="evenodd" clip-rule="evenodd" d="M31.3503 397.382C35.2465 397.258 39.1346 397.382 43.0155 397.746C44.9599 398.235 44.9599 398.716 43.0155 399.204C47.2791 400.013 51.1672 401.596 54.6806 403.943C46.7242 402.201 38.9472 400.013 31.3503 397.382Z" fill="#484848"/>
<path fill-rule="evenodd" clip-rule="evenodd" d="M61.9705 405.402C65.096 405.934 68.0123 406.911 70.7194 408.318C67.5005 408.055 64.5842 407.086 61.9705 405.402Z" fill="#484848"/>
<path fill-rule="evenodd" clip-rule="evenodd" d="M624.813 408.318C621.422 410.126 617.777 411.344 613.877 411.963C613.811 411.234 614.059 410.629 614.606 410.141C618.018 409.528 621.422 408.923 624.813 408.318Z" fill="#484848"/>
<path fill-rule="evenodd" clip-rule="evenodd" d="M258.82 422.899C271.739 420.69 281.096 425.313 286.889 436.752C289.419 456.823 280.549 466.425 260.278 465.55C246.861 460.089 241.88 450.247 245.332 436.023C247.857 430.219 252.109 426.326 258.09 424.357C258.672 424.022 258.915 423.541 258.82 422.899Z" fill="#212121"/>
<path fill-rule="evenodd" clip-rule="evenodd" d="M387.136 502.368C384.001 503.87 380.596 504.599 376.929 504.555C380.166 503.469 383.571 502.74 387.136 502.368Z" fill="#565656"/>
<path fill-rule="evenodd" clip-rule="evenodd" d="M330.269 506.013C342.663 506.983 355.057 506.983 367.451 506.013C366.146 506.604 364.688 506.968 363.077 507.107C353.599 507.595 344.121 507.595 334.643 507.107C333.032 506.968 331.574 506.604 330.269 506.013Z" fill="#565656"/>
<path fill-rule="evenodd" clip-rule="evenodd" d="M298.189 516.22C299.938 516.045 301.396 516.534 302.564 517.678C300.815 517.853 299.357 517.365 298.189 516.22Z" fill="#565656"/>
<path fill-rule="evenodd" clip-rule="evenodd" d="M403.904 514.762C400.908 516.06 397.744 517.037 394.427 517.678C397.27 515.929 400.434 514.959 403.904 514.762Z" fill="#565656"/>
<path fill-rule="evenodd" clip-rule="evenodd" d="M306.938 518.407C316.716 520.281 326.437 521.987 336.101 523.511C326.077 523.051 316.356 521.345 306.938 518.407Z" fill="#565656"/>
<path fill-rule="evenodd" clip-rule="evenodd" d="M385.678 519.137C384.475 520.179 383.017 520.784 381.304 520.959C378.38 521.324 375.464 521.688 372.555 522.053C376.791 520.85 381.165 519.873 385.678 519.137Z" fill="#565656"/>
<path fill-rule="evenodd" clip-rule="evenodd" d="M372.555 522.053C367.874 523.292 363.012 523.781 357.974 523.511C362.683 522.556 367.546 522.067 372.555 522.053Z" fill="#565656"/>
<path fill-rule="evenodd" clip-rule="evenodd" d="M299.647 531.531C307.901 533.426 316.165 535.125 324.436 536.634C318.552 536.532 312.719 535.927 306.938 534.812C304.194 534.192 301.764 533.098 299.647 531.531Z" fill="#565656"/>
<path fill-rule="evenodd" clip-rule="evenodd" d="M368.18 536.634C361.539 537.772 354.736 538.253 347.766 538.092C342.539 538.092 337.435 537.852 332.456 537.363C344.376 537.509 356.282 537.269 368.18 536.634Z" fill="#565656"/>
<path fill-rule="evenodd" clip-rule="evenodd" d="M417.758 612.457C416.591 613.602 415.133 614.091 413.383 613.916C414.55 612.771 416.008 612.283 417.758 612.457Z" fill="#484848"/>
<path fill-rule="evenodd" clip-rule="evenodd" d="M567.946 620.477C566.473 622.402 564.534 623.014 562.113 622.3C556.594 618.939 551.25 615.417 546.073 611.728C548.939 610.562 550.645 611.531 551.177 614.645C552.621 615.264 554.079 615.629 555.551 615.738C554.822 615.009 554.093 614.28 553.364 613.551C555.165 614.047 556.864 615.016 558.468 616.467C557.024 616.912 556.784 617.641 557.739 618.654C559.197 618.895 560.655 619.143 562.113 619.384C561.625 619.624 561.143 619.872 560.655 620.113C563.075 620.477 565.503 620.601 567.946 620.477Z" fill="#484848"/>
</svg>
