<svg width="69" height="69" viewBox="0 0 69 69" fill="none" xmlns="http://www.w3.org/2000/svg">
<g clip-path="url(#clip0_6_857)">
<rect width="69" height="69" fill="#1E1E1E"/>
<path d="M34.5 69C53.5538 69 69 53.5538 69 34.5C69 15.4462 53.5538 0 34.5 0C15.4462 0 0 15.4462 0 34.5C0 53.5538 15.4462 69 34.5 69Z" fill="url(#paint0_linear_6_857)"/>
<path fill-rule="evenodd" clip-rule="evenodd" d="M15.6167 34.1359C25.6741 29.754 32.3807 26.8652 35.7363 25.4695C45.3173 21.4844 47.3082 20.7921 48.6058 20.7693C48.8912 20.7643 49.5293 20.835 49.9426 21.1704C50.2917 21.4536 50.3877 21.8362 50.4337 22.1047C50.4796 22.3732 50.5368 22.9849 50.4913 23.4628C49.9721 28.9181 47.7256 42.1566 46.5827 48.2666C46.099 50.852 45.1468 51.7188 44.2249 51.8037C42.2214 51.988 40.7001 50.4796 38.7596 49.2076C35.7232 47.2172 34.0078 45.9781 31.0604 44.0358C27.6541 41.7912 29.8622 40.5575 31.8034 38.5413C32.3115 38.0136 41.1388 29.9844 41.3097 29.2561C41.3311 29.165 41.3509 28.8254 41.1492 28.6461C40.9474 28.4668 40.6497 28.5281 40.4349 28.5769C40.1303 28.646 35.2795 31.8522 25.8826 38.1954C24.5057 39.1409 23.2586 39.6016 22.1412 39.5774C20.9093 39.5508 18.5398 38.8809 16.7783 38.3083C14.6177 37.606 12.9005 37.2347 13.0501 36.0419C13.128 35.4207 13.9835 34.7853 15.6167 34.1359Z" fill="white"/>
</g>
<defs>
<linearGradient id="paint0_linear_6_857" x1="3450" y1="0" x2="3450" y2="6848.83" gradientUnits="userSpaceOnUse">
<stop stop-color="#009C77"/>
<stop offset="1" stop-color="#00F5BB"/>
</linearGradient>
<clipPath id="clip0_6_857">
<rect width="69" height="69" fill="white"/>
</clipPath>
</defs>
</svg>
