<svg width="33" height="60" viewBox="0 0 33 60" fill="none" xmlns="http://www.w3.org/2000/svg">
<path d="M4.21066 1H16.4695H28.4365C31.0051 1 31.8418 3.33503 31.9391 4.50254V54.9975C31.9391 57.566 28.6311 58.4027 26.9772 58.5H5.67005C2.63452 58.5 1.29188 56.165 1 54.9975V4.50254C1 1.70051 3.14044 1 4.21066 1Z" stroke="#00F5BB" stroke-width="2"/>
<path d="M9.58883 35.9188C9.58883 36.3503 9.36398 36.8083 8.86776 37.19C8.37047 37.5726 7.64076 37.8376 6.79442 37.8376C5.94808 37.8376 5.21837 37.5726 4.72107 37.19C4.22485 36.8083 4 36.3503 4 35.9188C4 35.4873 4.22485 35.0292 4.72107 34.6475C5.21837 34.265 5.94808 34 6.79442 34C7.64076 34 8.37047 34.265 8.86776 34.6475C9.36398 35.0292 9.58883 35.4873 9.58883 35.9188Z" stroke="#00F5BB" stroke-width="2"/>
<path d="M18.5888 35.9188C18.5888 36.3503 18.364 36.8083 17.8678 37.19C17.3705 37.5726 16.6408 37.8376 15.7944 37.8376C14.9481 37.8376 14.2184 37.5726 13.7211 37.19C13.2249 36.8083 13 36.3503 13 35.9188C13 35.4873 13.2249 35.0292 13.7211 34.6475C14.2184 34.265 14.9481 34 15.7944 34C16.6408 34 17.3705 34.265 17.8678 34.6475C18.364 35.0292 18.5888 35.4873 18.5888 35.9188Z" stroke="#00F5BB" stroke-width="2"/>
<path d="M28 36C28 36.4431 27.7629 36.9205 27.2284 37.3213C26.6937 37.7224 25.9091 38 25 38C24.0909 38 23.3063 37.7224 22.7716 37.3213C22.2371 36.9205 22 36.4431 22 36C22 35.5569 22.2371 35.0795 22.7716 34.6787C23.3063 34.2776 24.0909 34 25 34C25.9091 34 26.6937 34.2776 27.2284 34.6787C27.7629 35.0795 28 35.5569 28 36Z" stroke="#00F5BB" stroke-width="2"/>
<path d="M9.58883 44.9188C9.58883 45.3503 9.36398 45.8083 8.86776 46.19C8.37047 46.5726 7.64076 46.8376 6.79442 46.8376C5.94808 46.8376 5.21837 46.5726 4.72107 46.19C4.22485 45.8083 4 45.3503 4 44.9188C4 44.4873 4.22485 44.0292 4.72107 43.6475C5.21837 43.265 5.94808 43 6.79442 43C7.64076 43 8.37047 43.265 8.86776 43.6475C9.36398 44.0292 9.58883 44.4873 9.58883 44.9188Z" stroke="#00F5BB" stroke-width="2"/>
<path d="M18.5888 44.9188C18.5888 45.3503 18.364 45.8083 17.8678 46.19C17.3705 46.5726 16.6408 46.8376 15.7944 46.8376C14.9481 46.8376 14.2184 46.5726 13.7211 46.19C13.2249 45.8083 13 45.3503 13 44.9188C13 44.4873 13.2249 44.0292 13.7211 43.6475C14.2184 43.265 14.9481 43 15.7944 43C16.6408 43 17.3705 43.265 17.8678 43.6475C18.364 44.0292 18.5888 44.4873 18.5888 44.9188Z" stroke="#00F5BB" stroke-width="2"/>
<path d="M27.5888 44.9188C27.5888 45.3503 27.364 45.8083 26.8678 46.19C26.3705 46.5726 25.6408 46.8376 24.7944 46.8376C23.9481 46.8376 23.2184 46.5726 22.7211 46.19C22.2249 45.8083 22 45.3503 22 44.9188C22 44.4873 22.2249 44.0292 22.7211 43.6475C23.2184 43.265 23.9481 43 24.7944 43C25.6408 43 26.3705 43.265 26.8678 43.6475C27.364 44.0292 27.5888 44.4873 27.5888 44.9188Z" stroke="#00F5BB" stroke-width="2"/>
</svg>
