<svg width="70" height="70" viewBox="0 0 70 70" fill="none" xmlns="http://www.w3.org/2000/svg">
<path d="M26.1928 15H34.5652H42.7383C44.4925 15 45.064 16.5948 45.1304 17.3921V51.8786C45.1304 53.6328 42.8712 54.2043 41.7416 54.2707H27.1895C25.1163 54.2707 24.1993 52.676 24 51.8786V17.3921C24 15.4784 25.4619 15 26.1928 15Z" stroke="#00F5BB" stroke-width="2"/>
<mask id="path-2-inside-1_26_1381" fill="white">
<ellipse cx="27.9574" cy="38.8484" rx="2.59147" ry="1.99344"/>
</mask>
<path d="M28.5489 38.8484C28.5489 38.6499 28.6585 38.605 28.5704 38.6727C28.4802 38.7422 28.2701 38.8419 27.9574 38.8419V42.8419C29.0759 42.8419 30.1616 42.4953 31.0093 41.8432C31.8591 41.1895 32.5489 40.1479 32.5489 38.8484H28.5489ZM27.9574 38.8419C27.6447 38.8419 27.4346 38.7422 27.3444 38.6727C27.2563 38.605 27.3659 38.6499 27.3659 38.8484H23.3659C23.3659 40.1479 24.0557 41.1895 24.9055 41.8432C25.7532 42.4953 26.8389 42.8419 27.9574 42.8419V38.8419ZM27.3659 38.8484C27.3659 39.047 27.2563 39.0919 27.3444 39.0241C27.4346 38.9547 27.6447 38.855 27.9574 38.855V34.855C26.8389 34.855 25.7532 35.2015 24.9055 35.8536C24.0557 36.5073 23.3659 37.5489 23.3659 38.8484H27.3659ZM27.9574 38.855C28.2701 38.855 28.4802 38.9547 28.5704 39.0241C28.6585 39.0919 28.5489 39.047 28.5489 38.8484H32.5489C32.5489 37.5489 31.8591 36.5073 31.0093 35.8536C30.1616 35.2015 29.0759 34.855 27.9574 34.855V38.855Z" fill="#00F5BB" mask="url(#path-2-inside-1_26_1381)"/>
<mask id="path-4-inside-2_26_1381" fill="white">
<ellipse cx="34.1041" cy="38.8484" rx="2.59147" ry="1.99344"/>
</mask>
<path d="M34.6956 38.8484C34.6956 38.6499 34.8052 38.605 34.7172 38.6727C34.6269 38.7422 34.4168 38.8419 34.1041 38.8419V42.8419C35.2227 42.8419 36.3083 42.4953 37.156 41.8432C38.0058 41.1895 38.6956 40.1479 38.6956 38.8484H34.6956ZM34.1041 38.8419C33.7914 38.8419 33.5814 38.7422 33.4911 38.6727C33.403 38.605 33.5127 38.6499 33.5127 38.8484H29.5127C29.5127 40.1479 30.2024 41.1895 31.0523 41.8432C31.8999 42.4953 32.9856 42.8419 34.1041 42.8419V38.8419ZM33.5127 38.8484C33.5127 39.047 33.403 39.0919 33.4911 39.0241C33.5814 38.9547 33.7914 38.855 34.1041 38.855V34.855C32.9856 34.855 31.8999 35.2015 31.0523 35.8536C30.2024 36.5073 29.5127 37.5489 29.5127 38.8484H33.5127ZM34.1041 38.855C34.4168 38.855 34.6269 38.9547 34.7172 39.0241C34.8052 39.0919 34.6956 39.047 34.6956 38.8484H38.6956C38.6956 37.5489 38.0058 36.5073 37.156 35.8536C36.3083 35.2015 35.2227 34.855 34.1041 34.855V38.855Z" fill="#00F5BB" mask="url(#path-4-inside-2_26_1381)"/>
<path d="M42.1231 38.9039C42.1231 39.0844 42.0279 39.324 41.723 39.5527C41.4177 39.7816 40.9502 39.9528 40.3913 39.9528C39.8323 39.9528 39.3648 39.7816 39.0595 39.5527C38.7546 39.324 38.6594 39.0844 38.6594 38.9039C38.6594 38.7234 38.7546 38.4838 39.0595 38.2551C39.3648 38.0262 39.8323 37.855 40.3913 37.855C40.9502 37.855 41.4177 38.0262 41.723 38.2551C42.0279 38.4838 42.1231 38.7234 42.1231 38.9039Z" stroke="#00F5BB" stroke-width="2"/>
<mask id="path-7-inside-3_26_1381" fill="white">
<ellipse cx="27.9574" cy="44.9951" rx="2.59147" ry="1.99344"/>
</mask>
<path d="M28.5489 44.9951C28.5489 44.7966 28.6585 44.7517 28.5704 44.8195C28.4802 44.8889 28.2701 44.9886 27.9574 44.9886V48.9886C29.0759 48.9886 30.1616 48.642 31.0093 47.99C31.8591 47.3362 32.5489 46.2946 32.5489 44.9951H28.5489ZM27.9574 44.9886C27.6447 44.9886 27.4346 44.8889 27.3444 44.8195C27.2563 44.7517 27.3659 44.7966 27.3659 44.9951H23.3659C23.3659 46.2946 24.0557 47.3362 24.9055 47.99C25.7532 48.642 26.8389 48.9886 27.9574 48.9886V44.9886ZM27.3659 44.9951C27.3659 45.1937 27.2563 45.2386 27.3444 45.1708C27.4346 45.1014 27.6447 45.0017 27.9574 45.0017V41.0017C26.8389 41.0017 25.7532 41.3483 24.9055 42.0003C24.0557 42.654 23.3659 43.6956 23.3659 44.9951H27.3659ZM27.9574 45.0017C28.2701 45.0017 28.4802 45.1014 28.5704 45.1708C28.6585 45.2386 28.5489 45.1937 28.5489 44.9951H32.5489C32.5489 43.6956 31.8591 42.654 31.0093 42.0003C30.1616 41.3483 29.0759 41.0017 27.9574 41.0017V45.0017Z" fill="#00F5BB" mask="url(#path-7-inside-3_26_1381)"/>
<mask id="path-9-inside-4_26_1381" fill="white">
<ellipse cx="34.1041" cy="44.9951" rx="2.59147" ry="1.99344"/>
</mask>
<path d="M34.6956 44.9951C34.6956 44.7966 34.8052 44.7517 34.7172 44.8195C34.6269 44.8889 34.4168 44.9886 34.1041 44.9886V48.9886C35.2227 48.9886 36.3083 48.642 37.156 47.99C38.0058 47.3362 38.6956 46.2946 38.6956 44.9951H34.6956ZM34.1041 44.9886C33.7914 44.9886 33.5814 44.8889 33.4911 44.8195C33.403 44.7517 33.5127 44.7966 33.5127 44.9951H29.5127C29.5127 46.2946 30.2024 47.3362 31.0523 47.99C31.8999 48.642 32.9856 48.9886 34.1041 48.9886V44.9886ZM33.5127 44.9951C33.5127 45.1937 33.403 45.2386 33.4911 45.1708C33.5814 45.1014 33.7914 45.0017 34.1041 45.0017V41.0017C32.9856 41.0017 31.8999 41.3483 31.0523 42.0003C30.2024 42.654 29.5127 43.6956 29.5127 44.9951H33.5127ZM34.1041 45.0017C34.4168 45.0017 34.6269 45.1014 34.7172 45.1708C34.8052 45.2386 34.6956 45.1937 34.6956 44.9951H38.6956C38.6956 43.6956 38.0058 42.654 37.156 42.0003C36.3083 41.3483 35.2227 41.0017 34.1041 41.0017V45.0017Z" fill="#00F5BB" mask="url(#path-9-inside-4_26_1381)"/>
<mask id="path-11-inside-5_26_1381" fill="white">
<ellipse cx="40.2508" cy="44.9951" rx="2.59147" ry="1.99344"/>
</mask>
<path d="M40.8423 44.9951C40.8423 44.7966 40.952 44.7517 40.8639 44.8195C40.7736 44.8889 40.5635 44.9886 40.2508 44.9886V48.9886C41.3694 48.9886 42.455 48.642 43.3027 47.99C44.1526 47.3362 44.8423 46.2946 44.8423 44.9951H40.8423ZM40.2508 44.9886C39.9381 44.9886 39.7281 44.8889 39.6378 44.8195C39.5497 44.7517 39.6594 44.7966 39.6594 44.9951H35.6594C35.6594 46.2946 36.3491 47.3362 37.199 47.99C38.0467 48.642 39.1323 48.9886 40.2508 48.9886V44.9886ZM39.6594 44.9951C39.6594 45.1937 39.5497 45.2386 39.6378 45.1708C39.7281 45.1014 39.9381 45.0017 40.2508 45.0017V41.0017C39.1323 41.0017 38.0467 41.3483 37.199 42.0003C36.3491 42.654 35.6594 43.6956 35.6594 44.9951H39.6594ZM40.2508 45.0017C40.5635 45.0017 40.7736 45.1014 40.8639 45.1708C40.952 45.2386 40.8423 45.1937 40.8423 44.9951H44.8423C44.8423 43.6956 44.1526 42.654 43.3027 42.0003C42.455 41.3483 41.3694 41.0017 40.2508 41.0017V45.0017Z" fill="#00F5BB" mask="url(#path-11-inside-5_26_1381)"/>
</svg>
