<svg width="69" height="68" viewBox="0 0 69 68" fill="none" xmlns="http://www.w3.org/2000/svg">
<g clip-path="url(#clip0_6_870)">
<mask id="mask0_6_870" style="mask-type:luminance" maskUnits="userSpaceOnUse" x="0" y="0" width="69" height="68">
<path d="M68.6584 0H0.341583V67.85H68.6584V0Z" fill="white"/>
</mask>
<g mask="url(#mask0_6_870)">
<path d="M0.341583 32.568C0.341583 17.2153 0.341583 9.53896 5.14387 4.76947C9.94618 0 17.6753 0 33.1337 0H35.8663C51.3247 0 59.0538 0 63.8562 4.76947C68.6584 9.53896 68.6584 17.2153 68.6584 32.568V35.282C68.6584 50.6347 68.6584 58.311 63.8562 63.0806C59.0538 67.85 51.3247 67.85 35.8663 67.85H33.1337C17.6753 67.85 9.94618 67.85 5.14387 63.0806C0.341583 58.311 0.341583 50.6347 0.341583 35.282V32.568Z" fill="#009C77"/>
<path d="M36.6919 48.8805C21.1214 48.8805 12.2403 38.2789 11.8702 20.6379H19.6697C19.9259 33.586 25.6758 39.0705 30.2302 40.2013V20.6379H37.5745V31.8048C42.072 31.3242 46.7967 26.2356 48.3908 20.6379H55.735C54.511 27.536 49.3873 32.6247 45.7437 34.7167C49.3873 36.413 55.2229 40.8515 57.4432 48.8805H49.3588C47.6224 43.509 43.2961 39.3532 37.5745 38.7877V48.8805H36.6919Z" fill="white"/>
</g>
</g>
<defs>
<clipPath id="clip0_6_870">
<rect width="69" height="67.85" fill="white"/>
</clipPath>
</defs>
</svg>
