<svg width="69" height="69" viewBox="0 0 69 69" fill="none" xmlns="http://www.w3.org/2000/svg">
<path d="M1.45297 33.9586C1.45126 39.7337 2.95735 45.3727 5.82142 50.3431L1.17896 67.3262L18.5258 62.7691C23.305 65.3788 28.6859 66.756 34.1622 66.7579H34.1768C52.2106 66.7579 66.8906 52.0551 66.8981 33.9841C66.9017 25.2272 63.501 16.9932 57.3224 10.7984C51.145 4.60374 42.9291 1.19045 34.1756 1.18655C16.1396 1.18655 1.46028 15.8881 1.45297 33.9586Z" fill="url(#paint0_linear_31_2)"/>
<path d="M0.284615 33.9465C0.282421 39.9299 1.84287 45.7707 4.80884 50.9192L0 68.5107L17.969 63.7903C22.9198 66.4953 28.4939 67.9209 34.1665 67.923H34.1812C52.8622 67.923 68.0693 52.6916 68.0772 33.9741C68.0804 24.9022 64.5577 16.3725 58.1585 9.95556C51.7583 3.53883 43.248 0.00343323 34.1812 -0.000717163C15.4971 -0.000717163 0.292051 15.2283 0.284494 33.9465H0.284615ZM10.9853 50.0327L10.3145 48.9654C7.49422 44.4726 6.00533 39.2804 6.00776 33.9488C6.01374 18.3907 18.6515 5.73347 34.1919 5.73347C41.7174 5.73653 48.7902 8.67537 54.11 14.0088C59.4292 19.3418 62.3563 26.4316 62.3541 33.9718C62.3475 49.5303 49.7092 62.1894 34.1813 62.1894H34.1703C29.114 62.1867 24.1555 60.8266 19.8308 58.2554L18.8016 57.6443L8.13842 60.4451L10.9853 50.0327Z" fill="url(#paint1_linear_31_2)"/>
<path fill-rule="evenodd" clip-rule="evenodd" d="M25.7094 19.7553C25.0749 18.3423 24.4071 18.3139 23.8035 18.2891C23.3098 18.268 22.7446 18.2693 22.1804 18.2693C21.6158 18.2693 20.6981 18.4818 19.9221 19.3309C19.1456 20.18 16.9575 22.2326 16.9575 26.4074C16.9575 30.5828 19.9927 34.6167 20.4158 35.1833C20.8392 35.7492 26.2751 44.59 34.8835 47.9913C42.038 50.818 43.4939 50.2557 45.0468 50.1143C46.5996 49.9729 50.0577 48.0621 50.7634 46.0806C51.4693 44.0995 51.4693 42.4014 51.2576 42.0464C51.0457 41.6927 50.4811 41.4806 49.6341 41.0562C48.787 40.6318 44.6232 38.5788 43.8467 38.2959C43.0703 38.0131 42.5056 37.8717 41.941 38.7211C41.3763 39.5699 39.7542 41.4806 39.2599 42.0465C38.7658 42.6135 38.2718 42.6842 37.4247 42.2598C36.5776 41.8343 33.8498 40.9391 30.6139 38.0485C28.0961 35.7995 26.3965 33.022 25.9021 32.1725C25.408 31.3238 25.8493 30.8641 26.2741 30.4411C26.6544 30.0609 27.1212 29.4507 27.5447 28.9551C27.9673 28.4597 28.1085 28.106 28.3908 27.5402C28.6731 26.9736 28.532 26.478 28.3203 26.0538C28.1085 25.6294 26.4625 21.433 25.7094 19.7553Z" fill="white"/>
<defs>
<linearGradient id="paint0_linear_31_2" x1="34.0383" y1="67.3262" x2="34.0383" y2="1.18648" gradientUnits="userSpaceOnUse">
<stop stop-color="#009C77"/>
<stop offset="1" stop-color="#009C77"/>
</linearGradient>
<linearGradient id="paint1_linear_31_2" x1="34.0388" y1="68.5109" x2="34.0388" y2="-0.000678824" gradientUnits="userSpaceOnUse">
<stop stop-color="#009C77"/>
<stop offset="1" stop-color="#009C77"/>
</linearGradient>
</defs>
</svg>
